<svg width="97" height="62" viewBox="0 0 97 62" fill="none" xmlns="http://www.w3.org/2000/svg">
<g clip-path="url(#clip0_97_6)">
<path d="M96.89 12.6266C96.7453 12.1102 96.4302 11.6583 95.9962 11.3447C95.3298 10.8481 94.5295 10.5646 93.6998 10.5314C92.7005 10.4903 91.7014 10.616 90.7433 10.9035C87.8349 11.9801 85.0651 13.4008 82.4926 15.1354C79.809 16.9245 77.2542 18.9006 74.847 21.049C72.4026 23.2159 70.0797 25.5169 67.889 27.9412C65.7163 30.3259 63.6812 32.683 61.8386 34.9299C60.6285 35.1505 59.4183 35.3297 58.2495 35.4813C57.0807 35.633 56.3106 35.7019 55.348 35.7846L55.5543 35.4951C56.5994 34.0339 57.6307 32.4212 58.6346 30.6843C59.8263 28.6442 61.0273 26.5674 62.2373 24.4537C63.3374 22.6066 64.3963 20.7871 65.4414 18.9399C66.4864 17.0928 67.4628 15.5903 68.4529 14.1153C69.0002 14.1516 69.5499 14.1192 70.0892 14.0188C70.7041 13.8921 71.3103 13.7263 71.9043 13.5226L72.4819 13.2883C72.8733 13.1387 73.2545 12.9638 73.6232 12.7645L73.912 12.6128C74.352 12.3785 74.7646 12.1441 75.1221 11.9236C76.2022 11.3206 77.1927 10.5689 78.0648 9.69049C78.6303 9.12181 79.0543 8.42766 79.3024 7.66419C79.3876 7.40202 79.4109 7.12358 79.3704 6.85085C79.3298 6.57812 79.2265 6.31859 79.0686 6.09276C78.9017 5.88724 78.6924 5.72042 78.455 5.60382C78.2176 5.48721 77.9578 5.42358 77.6935 5.41731C76.8806 5.38196 76.0718 5.55264 75.3421 5.91355C74.9589 6.08412 74.5909 6.28702 74.242 6.52008C73.5831 6.92266 72.9618 7.38402 72.3856 7.89853C72.0556 8.188 71.7393 8.47747 71.4368 8.79451C70.8873 9.32497 70.3685 9.88645 69.8829 10.4762L67.8065 13.0677C67.4263 12.9905 67.06 12.8557 66.7202 12.668C66.3235 12.4603 65.9502 12.2107 65.6064 11.9236C65.2488 11.6203 64.9051 11.3033 64.575 10.9725C64.2313 10.6279 63.915 10.297 63.5987 9.93865C62.9799 9.26321 62.2923 8.56018 61.5498 7.85717C60.7513 7.11162 59.8535 6.48071 58.8821 5.98248C57.7447 5.40281 56.5248 5.00293 55.2655 4.79701C54.9218 4.72809 54.5643 4.68674 54.193 4.64538C52.899 4.51612 51.5954 4.51612 50.3014 4.64538C48.5775 4.83738 46.8803 5.22112 45.241 5.7895H45.1723C43.6541 6.34251 42.1939 7.04431 40.8132 7.88473C39.5295 8.67727 38.3314 9.60118 37.2379 10.6416C36.2239 11.6096 35.3031 12.6711 34.4877 13.8121C33.8492 14.6802 33.2878 15.6027 32.81 16.569C32.3852 17.4554 32.04 18.378 31.7787 19.3259C31.5399 20.225 31.4242 21.1524 31.4349 22.0828C31.434 22.8846 31.6276 23.6746 31.9988 24.3848C32.3889 25.0654 32.9603 25.6238 33.6489 25.9976C34.5059 26.4259 35.4426 26.67 36.3991 26.7144C37.6304 26.7878 38.8647 26.6384 40.0431 26.2732C41.3327 25.8767 42.5771 25.3454 43.7559 24.688C44.5575 24.2377 45.3292 23.7358 46.0661 23.1855C46.4786 22.8961 46.8912 22.579 47.2899 22.2482C48.3981 21.3294 49.4369 20.3296 50.3977 19.2569C50.6452 18.9675 50.8927 18.6918 51.1265 18.3885C51.7438 17.6284 52.309 16.827 52.8179 15.99C53.4438 14.9872 53.9382 13.9077 54.2892 12.7783L54.3992 12.475C54.4192 12.3517 54.4192 12.226 54.3992 12.1028V11.8409H53.4917V12.3509C53.5003 12.4104 53.5003 12.4707 53.4917 12.5301C53.1666 13.5965 52.7043 14.6159 52.1166 15.5627C51.8141 16.0452 51.4978 16.5138 51.1402 16.9412C50.7105 17.5247 50.2516 18.086 49.7651 18.6229C48.8413 19.6633 47.8391 20.6311 46.7674 21.5176L46.0661 22.069C45.1933 22.7316 44.2742 23.3304 43.3159 23.861C42.1981 24.4938 41.0126 24.9978 39.7818 25.3635C38.676 25.6884 37.5206 25.8098 36.3716 25.7219C35.5812 25.696 34.8025 25.5231 34.0752 25.2119C33.5413 24.9599 33.0922 24.5575 32.7826 24.054C32.4777 23.5172 32.3255 22.907 32.3425 22.2896C32.346 21.4815 32.4665 20.6782 32.7001 19.9048C32.9558 19.0939 33.2777 18.3056 33.6626 17.5477C34.1155 16.6784 34.6399 15.8484 35.2302 15.0664C36.0435 13.9743 36.9649 12.9675 37.9804 12.0614C39.0667 11.0524 40.2559 10.1607 41.5282 9.40103C42.9004 8.58119 44.3517 7.90231 45.8599 7.37471C47.5146 6.79709 49.2316 6.41769 50.9752 6.24439L51.649 6.17546C52.9471 6.03669 54.2563 6.03669 55.5543 6.17546C56.653 6.29825 57.7278 6.58154 58.7446 7.01632C59.5653 7.35142 60.3267 7.81684 60.9997 8.39475C61.6387 8.96631 62.2447 9.57382 62.8149 10.2143C63.1449 10.5865 63.4887 10.9449 63.8462 11.3033C64.2037 11.6617 64.5612 11.9787 64.9463 12.2958C65.3278 12.6089 65.7375 12.8858 66.1701 13.1229C66.4906 13.2967 66.8267 13.4397 67.174 13.5502C66.0052 15.1354 64.795 16.8447 63.5987 18.6642C62.4023 20.4838 61.0135 22.5652 59.7071 24.5778L55.7881 30.8911C55.3481 31.5527 54.908 32.1868 54.4817 32.8071C54.0554 33.4274 53.6292 34.0201 53.2166 34.5991L52.3641 35.7294V35.8121L52.2128 36.0189C51.9928 36.3222 51.7591 36.6254 51.5115 36.9287L51.209 37.3146L49.8339 38.9964L49.6689 39.1893C49.3663 39.5753 49.0501 39.9475 48.7476 40.3197L48.3213 40.8573C47.5925 41.7395 46.8499 42.6079 46.0936 43.4488L45.9836 43.5728C45.5298 44.1104 45.0485 44.6205 44.6085 45.1305C43.3159 46.5089 41.9682 47.8874 40.6206 49.1693C39.273 50.4513 37.8704 51.6919 36.4128 52.836C35.0523 53.8743 33.6387 54.8405 32.1775 55.7307C30.7501 56.5848 29.266 57.3401 27.7359 57.9914C26.2176 58.6518 24.6497 59.1911 23.0468 59.6042C21.4326 60.0213 19.7855 60.298 18.1239 60.4312C15.7491 60.665 13.3538 60.5816 11.0009 60.1831C9.20434 59.8657 7.47176 59.2557 5.87175 58.3774C4.82382 57.7714 3.89243 56.9824 3.12154 56.0478C2.4321 55.1806 1.90558 54.1951 1.56766 53.1393C1.23364 52.0695 1.08024 50.9514 1.11385 49.831C1.16034 48.6172 1.35426 47.4137 1.69137 46.247C2.33398 43.9547 3.36678 41.7909 4.74415 39.851C6.34941 37.5685 8.26041 35.5184 10.4233 33.7583C12.039 32.4079 13.8066 31.2513 15.69 30.3121C17.4213 29.4473 19.2368 28.7636 21.108 28.272C22.8162 27.8253 24.5688 27.571 26.3333 27.5139H26.9109C28.2686 27.5082 29.6232 27.6422 30.9537 27.9136C31.7605 28.1104 32.5511 28.3684 33.3188 28.6855C34.073 28.9956 34.781 29.4085 35.4228 29.9124C36.0551 30.3939 36.5994 30.9815 37.0316 31.6492C37.4724 32.3425 37.7585 33.123 37.8704 33.9374C37.9377 34.3196 37.9699 34.7073 37.9667 35.0954C37.951 35.4426 37.9097 35.7881 37.843 36.1292C36.0691 36.1292 34.3089 36.267 32.5763 36.4187C30.7262 36.5761 28.8887 36.857 27.0759 37.2595C25.4139 37.6297 23.7892 38.1511 22.2218 38.8172C20.967 39.3877 19.7736 40.0851 18.6602 40.8986C17.7036 41.5518 16.8387 42.3307 16.0888 43.2144C15.4638 43.9287 14.9408 44.7267 14.5349 45.5853C14.194 46.3686 14.0116 47.212 13.9986 48.0665C13.9994 48.8384 14.1937 49.5976 14.5638 50.2745C14.9338 50.9513 15.4677 51.524 16.1163 51.94C16.8494 52.4149 17.6826 52.7122 18.5502 52.8084C19.502 52.8916 20.4608 52.8359 21.3967 52.643C22.5816 52.4012 23.7318 52.0122 24.8207 51.4851C26.1864 50.8245 27.489 50.0401 28.7122 49.1417C30.2407 48.0191 31.684 46.7843 33.0301 45.4475C34.4678 44.0987 35.7376 42.5806 36.8116 40.9262C37.572 39.74 38.1556 38.4491 38.5443 37.0941C40.7445 37.0941 42.9858 37.0941 45.1998 37.0941H45.3923V36.1706C43.2059 36.1706 41.0057 36.1706 38.8056 36.1706C38.8056 35.8122 38.8055 35.4675 38.8743 35.1367C38.9006 34.699 38.8775 34.2597 38.8056 33.8272C38.5989 32.6314 38.0766 31.5128 37.2929 30.5878C36.5251 29.6869 35.5914 28.9428 34.5427 28.3961C32.9581 27.5163 31.2311 26.9237 29.4411 26.6455C27.3787 26.3266 25.2819 26.2988 23.2118 26.5628C20.7725 26.8841 18.3866 27.5284 16.1163 28.4788C13.6335 29.5097 11.3166 30.9033 9.24078 32.6141C8.22396 33.4743 7.25959 34.3949 6.353 35.371C5.43233 36.3488 4.58658 37.3948 3.82285 38.5001C3.05362 39.6066 2.38183 40.7781 1.81517 42.0014C1.23451 43.2122 0.773933 44.4773 0.440061 45.7784C0.105014 47.0557 -0.0568369 48.3725 -0.0411922 49.6931C-0.0347025 50.9589 0.174148 52.2155 0.577538 53.4149C0.971243 54.5936 1.56691 55.6945 2.33771 56.6681C3.17896 57.6979 4.19924 58.5665 5.3492 59.232C7.03225 60.1689 8.86588 60.8034 10.7671 61.1067C13.2184 61.4954 15.709 61.5696 18.179 61.3273C21.4289 61.102 24.6269 60.3911 27.6671 59.2182C30.6963 58.048 33.5915 56.5553 36.3029 54.7658C38.0766 53.598 39.7843 52.3325 41.4182 50.9751C42.9858 49.5966 44.5535 48.2182 46.0661 46.7708L46.3274 46.5227C47.2624 45.5991 48.1837 44.648 49.0776 43.6693C49.6689 43.0214 50.2602 42.2909 50.824 41.6844L51.099 41.3535C52.3916 39.8234 53.5879 38.2796 54.6743 36.7495C55.7468 36.653 56.847 36.5565 57.9745 36.4324C59.1021 36.3084 59.9684 36.1843 60.9997 36.0189C59.6246 37.8798 58.2495 39.7683 57.0532 41.643C55.8129 43.5513 54.7188 45.5512 53.7804 47.6255C52.9669 49.3903 52.349 51.2393 51.9378 53.1393C51.6008 54.6879 51.6008 56.2912 51.9378 57.8398C52.0011 58.1839 52.0978 58.5209 52.2265 58.846C52.4234 59.4471 52.7633 59.9911 53.2166 60.4312C53.7905 60.9704 54.5062 61.3339 55.2793 61.4789H55.3618C55.6796 61.5347 56.0017 61.5624 56.3244 61.5616C56.5534 61.5753 56.783 61.5753 57.012 61.5616C57.3412 61.5322 57.6676 61.4769 57.9882 61.3962C58.9005 61.187 59.7896 60.8869 60.6423 60.5002H60.7797C61.8479 59.9969 62.8656 59.3922 63.8187 58.6944C64.8993 57.9359 65.9326 57.1119 66.9127 56.227C67.9166 55.3448 68.8929 54.4212 69.8142 53.4701C70.7355 52.519 71.5468 51.6229 72.2069 50.8234L72.3856 50.6029L71.7118 50.0515L71.5331 50.2583C70.8868 51.0027 70.158 51.8297 69.2367 52.7809C68.3153 53.732 67.4215 54.5866 66.4865 55.4551C65.5514 56.3235 64.4788 57.1505 63.4612 57.8949C62.5279 58.5781 61.5335 59.1734 60.4909 59.6731C59.7984 59.9968 59.0811 60.2642 58.3458 60.4726L57.7958 60.6104C57.0401 60.8032 56.2514 60.8268 55.4856 60.6794C54.9314 60.5775 54.4195 60.3137 54.0142 59.9212L53.7667 59.6869C53.2173 58.9997 52.8654 58.1751 52.7491 57.3022C52.5784 56.1799 52.644 55.0341 52.9416 53.9388C53.2789 52.612 53.7392 51.3198 54.3167 50.0791C54.9651 48.6854 55.7047 47.3361 56.5306 46.0402C57.3832 44.6618 58.2908 43.2833 59.1983 42.0565C60.1059 40.8297 61.041 39.5477 61.9485 38.4312C62.8561 37.3146 63.6674 36.336 64.3825 35.5227C65.8401 35.2056 67.3665 34.8472 68.9203 34.4475C70.4742 34.0477 72.2206 33.5653 73.9395 33.069C75.7266 32.4991 77.4764 31.8177 79.1787 31.0289C80.7982 30.27 82.373 29.4185 83.8953 28.4788C86.6264 26.7988 89.1629 24.8201 91.4584 22.579C92.3727 21.6813 93.2314 20.7284 94.0298 19.7256C94.6863 18.8927 95.288 18.0178 95.8312 17.1066C96.0698 16.691 96.2767 16.2578 96.45 15.8108C96.6488 15.3327 96.7918 14.8331 96.8763 14.3221C97.0039 13.7647 97.0086 13.186 96.89 12.6266ZM70.9143 10.7933C71.1893 10.4487 71.478 10.1178 71.7531 9.81455C72.1218 9.40357 72.512 9.01249 72.9219 8.6429C73.2988 8.29483 73.6984 7.97245 74.1183 7.67797C74.5729 7.32039 75.0721 7.02381 75.6033 6.79576C76.1593 6.53144 76.7625 6.38144 77.3773 6.35465H77.5698C77.8519 6.35211 78.1236 6.46106 78.3261 6.65791C78.3877 6.77966 78.4198 6.91426 78.4198 7.05077C78.4198 7.18729 78.3877 7.32189 78.3261 7.44364C78.1348 8.07769 77.7844 8.65196 77.3085 9.11157C76.5502 9.88908 75.6952 10.5655 74.7645 11.1241L73.9945 11.5652L73.3345 11.9098L72.4132 12.3371L71.7806 12.599C71.2581 12.7995 70.72 12.9563 70.1717 13.0677C69.8327 13.1422 69.4874 13.1837 69.1404 13.1918C69.7454 12.3509 70.3642 11.5376 70.9143 10.7933ZM35.9728 40.554C34.9457 42.1211 33.7362 43.5602 32.37 44.841C31.082 46.1371 29.7034 47.3394 28.2447 48.4388C27.0681 49.3033 25.8163 50.0598 24.5044 50.6994C23.4935 51.2047 22.421 51.5755 21.3142 51.8022C20.4493 51.9724 19.5637 52.0096 18.6877 51.9124C17.9496 51.8474 17.2377 51.6063 16.6113 51.2094C16.082 50.8623 15.6472 50.3886 15.3463 49.831C15.0636 49.2768 14.9218 48.6613 14.9337 48.039C14.9425 47.3067 15.1017 46.5841 15.4012 45.9162C15.753 45.1152 16.216 44.368 16.7763 43.6969C17.4709 42.8737 18.2707 42.146 19.1552 41.5327C20.2515 40.7843 21.422 40.1514 22.6481 39.6442C24.1597 39.0144 25.7243 38.5208 27.3234 38.1693C29.0766 37.7467 30.8608 37.4656 32.6588 37.3284C34.2814 37.2044 35.9728 37.1216 37.6917 37.0803C37.2879 38.3049 36.7286 39.4724 36.0278 40.554H35.9728ZM95.9962 14.1016C95.9093 14.5286 95.7756 14.9446 95.5974 15.3421C95.4291 15.7239 95.2409 16.0966 95.0336 16.4587C94.5158 17.3404 93.9416 18.1876 93.3147 18.995C92.5624 19.9647 91.7495 20.8855 90.8808 21.7519C89.8083 22.797 88.679 23.7818 87.498 24.7018C86.203 25.696 84.8533 26.6164 83.4552 27.4587C81.951 28.3763 80.3945 29.2048 78.7936 29.9399C77.1146 30.7127 75.3875 31.3757 73.6232 31.9249C72.0143 32.4625 70.433 32.9174 68.9479 33.3034C67.7928 33.5928 66.5964 33.8823 65.3725 34.158C66.8302 32.4901 68.3704 30.8084 69.9242 29.1404C71.4781 27.4725 73.5133 25.4324 75.4246 23.6266C77.336 21.8209 79.3162 20.1254 81.3514 18.485C83.3719 16.8664 85.474 15.3527 87.6493 13.9499C89.1372 13.0199 90.7418 12.2922 92.4209 11.7858C92.8687 11.6588 93.3308 11.5893 93.7961 11.579C94.3433 11.5569 94.8832 11.7115 95.3362 12.0201C95.6433 12.2343 95.8631 12.5525 95.955 12.9161C96.0759 13.2989 96.1088 13.7042 96.0512 14.1016H95.9962ZM51.1127 36.46V36.0465C49.4213 36.1154 47.7299 36.1568 46.0523 36.1568V37.0941C47.5787 37.0941 49.1188 37.0941 50.6864 36.9562L51.1127 36.46Z" fill="#11150F"/>
<path d="M96.89 12.6266C96.7453 12.1102 96.4302 11.6583 95.9962 11.3447C95.3298 10.8481 94.5295 10.5646 93.6998 10.5314C92.7005 10.4903 91.7014 10.616 90.7433 10.9035C87.8349 11.9801 85.0651 13.4008 82.4926 15.1354C79.809 16.9245 77.2542 18.9006 74.847 21.049C72.4026 23.2159 70.0797 25.5169 67.889 27.9412C65.7163 30.3259 63.6812 32.683 61.8386 34.9299C60.6285 35.1505 59.4183 35.3297 58.2495 35.4813C57.0807 35.633 56.3106 35.7019 55.348 35.7846L55.5543 35.4951C56.5994 34.0339 57.6307 32.4212 58.6346 30.6843C59.8263 28.6442 61.0273 26.5674 62.2373 24.4537C63.3374 22.6066 64.3963 20.7871 65.4414 18.9399C66.4864 17.0928 67.4628 15.5903 68.4529 14.1153C69.0002 14.1516 69.5499 14.1192 70.0892 14.0188C70.7041 13.8921 71.3103 13.7263 71.9043 13.5226L72.4819 13.2883C72.8733 13.1387 73.2545 12.9638 73.6232 12.7645L73.912 12.6128C74.352 12.3785 74.7646 12.1441 75.1221 11.9236C76.2022 11.3206 77.1927 10.5689 78.0648 9.69049C78.6303 9.12181 79.0543 8.42766 79.3024 7.66419C79.3876 7.40202 79.4109 7.12358 79.3704 6.85085C79.3298 6.57812 79.2265 6.31859 79.0686 6.09276C78.9017 5.88724 78.6924 5.72042 78.455 5.60382C78.2176 5.48721 77.9578 5.42358 77.6935 5.41731C76.8806 5.38196 76.0718 5.55264 75.3421 5.91355C74.9589 6.08412 74.5909 6.28702 74.242 6.52008C73.5831 6.92266 72.9618 7.38402 72.3856 7.89853C72.0556 8.188 71.7393 8.47747 71.4368 8.79451C70.8873 9.32497 70.3685 9.88645 69.8829 10.4762L67.8065 13.0677C67.4263 12.9905 67.06 12.8557 66.7202 12.668C66.3235 12.4603 65.9502 12.2107 65.6064 11.9236C65.2488 11.6203 64.9051 11.3033 64.575 10.9725C64.2313 10.6279 63.915 10.297 63.5987 9.93865C62.9799 9.26321 62.2923 8.56018 61.5498 7.85717C60.7513 7.11162 59.8535 6.48071 58.8821 5.98248C57.7447 5.40281 56.5248 5.00293 55.2655 4.79701C54.9218 4.72809 54.5643 4.68674 54.193 4.64538C52.899 4.51612 51.5954 4.51612 50.3014 4.64538C48.5775 4.83738 46.8803 5.22112 45.241 5.7895H45.1723C43.6541 6.34251 42.1939 7.04431 40.8132 7.88473C39.5295 8.67727 38.3314 9.60118 37.2379 10.6416C36.2239 11.6096 35.3031 12.6711 34.4877 13.8121C33.8492 14.6802 33.2878 15.6027 32.81 16.569C32.3852 17.4554 32.04 18.378 31.7787 19.3259C31.5399 20.225 31.4242 21.1524 31.4349 22.0828C31.434 22.8846 31.6276 23.6746 31.9988 24.3848C32.3889 25.0654 32.9603 25.6238 33.6489 25.9976C34.5059 26.4259 35.4426 26.67 36.3991 26.7144C37.6304 26.7878 38.8647 26.6384 40.0431 26.2732C41.3327 25.8767 42.5771 25.3454 43.7559 24.688C44.5575 24.2377 45.3292 23.7358 46.0661 23.1855C46.4786 22.8961 46.8912 22.579 47.2899 22.2482C48.3981 21.3294 49.4369 20.3296 50.3977 19.2569C50.6452 18.9675 50.8927 18.6918 51.1265 18.3885C51.7438 17.6284 52.309 16.827 52.8179 15.99C53.4438 14.9872 53.9382 13.9077 54.2892 12.7783L54.3992 12.475C54.4192 12.3517 54.4192 12.226 54.3992 12.1028V11.8409H53.4917V12.3509C53.5003 12.4104 53.5003 12.4707 53.4917 12.5301C53.1666 13.5965 52.7043 14.6159 52.1166 15.5627C51.8141 16.0452 51.4978 16.5138 51.1402 16.9412C50.7105 17.5247 50.2516 18.086 49.7651 18.6229C48.8413 19.6633 47.8391 20.6311 46.7674 21.5176L46.0661 22.069C45.1933 22.7316 44.2742 23.3304 43.3159 23.861C42.1981 24.4938 41.0126 24.9978 39.7818 25.3635C38.676 25.6884 37.5206 25.8098 36.3716 25.7219C35.5812 25.696 34.8025 25.5231 34.0752 25.2119C33.5413 24.9599 33.0922 24.5575 32.7826 24.054C32.4777 23.5172 32.3255 22.907 32.3425 22.2896C32.346 21.4815 32.4665 20.6782 32.7001 19.9048C32.9558 19.0939 33.2777 18.3056 33.6626 17.5477C34.1155 16.6784 34.6399 15.8484 35.2302 15.0664C36.0435 13.9743 36.9649 12.9675 37.9804 12.0614C39.0667 11.0524 40.2559 10.1607 41.5282 9.40103C42.9004 8.58119 44.3517 7.90231 45.8599 7.37471C47.5146 6.79709 49.2316 6.41769 50.9752 6.24439L51.649 6.17546C52.9471 6.03669 54.2563 6.03669 55.5543 6.17546C56.653 6.29825 57.7278 6.58154 58.7446 7.01632C59.5653 7.35142 60.3267 7.81684 60.9997 8.39475C61.6387 8.96631 62.2447 9.57382 62.8149 10.2143C63.1449 10.5865 63.4887 10.9449 63.8462 11.3033C64.2037 11.6617 64.5612 11.9787 64.9463 12.2958C65.3278 12.6089 65.7375 12.8858 66.1701 13.1229C66.4906 13.2967 66.8267 13.4397 67.174 13.5502C66.0052 15.1354 64.795 16.8447 63.5987 18.6642C62.4023 20.4838 61.0135 22.5652 59.7071 24.5778L55.7881 30.8911C55.3481 31.5527 54.908 32.1868 54.4817 32.8071C54.0554 33.4274 53.6292 34.0201 53.2166 34.5991L52.3641 35.7294V35.8121L52.2128 36.0189C51.9928 36.3222 51.7591 36.6254 51.5115 36.9287L51.209 37.3146L49.8339 38.9964L49.6689 39.1893C49.3663 39.5753 49.0501 39.9475 48.7476 40.3197L48.3213 40.8573C47.5925 41.7395 46.8499 42.6079 46.0936 43.4488L45.9836 43.5728C45.5298 44.1104 45.0485 44.6205 44.6085 45.1305C43.3159 46.5089 41.9682 47.8874 40.6206 49.1693C39.273 50.4513 37.8704 51.6919 36.4128 52.836C35.0523 53.8743 33.6387 54.8405 32.1775 55.7307C30.7501 56.5848 29.266 57.3401 27.7359 57.9914C26.2176 58.6518 24.6497 59.1911 23.0468 59.6042C21.4326 60.0213 19.7855 60.298 18.1239 60.4312C15.7491 60.665 13.3538 60.5816 11.0009 60.1831C9.20434 59.8657 7.47176 59.2557 5.87175 58.3774C4.82382 57.7714 3.89243 56.9824 3.12154 56.0478C2.4321 55.1806 1.90558 54.1951 1.56766 53.1393C1.23364 52.0695 1.08024 50.9514 1.11385 49.831C1.16034 48.6172 1.35426 47.4137 1.69137 46.247C2.33398 43.9547 3.36678 41.7909 4.74415 39.851C6.34941 37.5685 8.26041 35.5184 10.4233 33.7583C12.039 32.4079 13.8066 31.2513 15.69 30.3121C17.4213 29.4473 19.2368 28.7636 21.108 28.272C22.8162 27.8253 24.5688 27.571 26.3333 27.5139H26.9109C28.2686 27.5082 29.6232 27.6422 30.9537 27.9136C31.7605 28.1104 32.5511 28.3684 33.3188 28.6855C34.073 28.9956 34.781 29.4085 35.4228 29.9124C36.0551 30.3939 36.5994 30.9815 37.0316 31.6492C37.4724 32.3425 37.7585 33.123 37.8704 33.9374C37.9377 34.3196 37.9699 34.7073 37.9667 35.0954C37.951 35.4426 37.9097 35.7881 37.843 36.1292C36.0691 36.1292 34.3089 36.267 32.5763 36.4187C30.7262 36.5761 28.8887 36.857 27.0759 37.2595C25.4139 37.6297 23.7892 38.1511 22.2218 38.8172C20.967 39.3877 19.7736 40.0851 18.6602 40.8986C17.7036 41.5518 16.8387 42.3307 16.0888 43.2144C15.4638 43.9287 14.9408 44.7267 14.5349 45.5853C14.194 46.3686 14.0116 47.212 13.9986 48.0665C13.9994 48.8384 14.1937 49.5976 14.5638 50.2745C14.9338 50.9513 15.4677 51.524 16.1163 51.94C16.8494 52.4149 17.6826 52.7122 18.5502 52.8084C19.502 52.8916 20.4608 52.8359 21.3967 52.643C22.5816 52.4012 23.7318 52.0122 24.8207 51.4851C26.1864 50.8245 27.489 50.0401 28.7122 49.1417C30.2407 48.0191 31.684 46.7843 33.0301 45.4475C34.4678 44.0987 35.7376 42.5806 36.8116 40.9262C37.572 39.74 38.1556 38.4491 38.5443 37.0941C40.7445 37.0941 42.9858 37.0941 45.1998 37.0941H45.3923V36.1706C43.2059 36.1706 41.0057 36.1706 38.8056 36.1706C38.8056 35.8122 38.8055 35.4675 38.8743 35.1367C38.9006 34.699 38.8775 34.2597 38.8056 33.8272C38.5989 32.6314 38.0766 31.5128 37.2929 30.5878C36.5251 29.6869 35.5914 28.9428 34.5427 28.3961C32.9581 27.5163 31.2311 26.9237 29.4411 26.6455C27.3787 26.3266 25.2819 26.2988 23.2118 26.5628C20.7725 26.8841 18.3866 27.5284 16.1163 28.4788C13.6335 29.5097 11.3166 30.9033 9.24078 32.6141C8.22396 33.4743 7.25959 34.3949 6.353 35.371C5.43233 36.3488 4.58658 37.3948 3.82285 38.5001C3.05362 39.6066 2.38183 40.7781 1.81517 42.0014C1.23451 43.2122 0.773933 44.4773 0.440061 45.7784C0.105014 47.0557 -0.0568369 48.3725 -0.0411922 49.6931C-0.0347025 50.9589 0.174148 52.2155 0.577538 53.4149C0.971243 54.5936 1.56691 55.6945 2.33771 56.6681C3.17896 57.6979 4.19924 58.5665 5.3492 59.232C7.03225 60.1689 8.86588 60.8034 10.7671 61.1067C13.2184 61.4954 15.709 61.5696 18.179 61.3273C21.4289 61.102 24.6269 60.3911 27.6671 59.2182C30.6963 58.048 33.5915 56.5553 36.3029 54.7658C38.0766 53.598 39.7843 52.3325 41.4182 50.9751C42.9858 49.5966 44.5535 48.2182 46.0661 46.7708L46.3274 46.5227C47.2624 45.5991 48.1837 44.648 49.0776 43.6693C49.6689 43.0214 50.2602 42.2909 50.824 41.6844L51.099 41.3535C52.3916 39.8234 53.5879 38.2796 54.6743 36.7495C55.7468 36.653 56.847 36.5565 57.9745 36.4324C59.1021 36.3084 59.9684 36.1843 60.9997 36.0189C59.6246 37.8798 58.2495 39.7683 57.0532 41.643C55.8129 43.5513 54.7188 45.5512 53.7804 47.6255C52.9669 49.3903 52.349 51.2393 51.9378 53.1393C51.6008 54.6879 51.6008 56.2912 51.9378 57.8398C52.0011 58.1839 52.0978 58.5209 52.2265 58.846C52.4234 59.4471 52.7633 59.9911 53.2166 60.4312C53.7905 60.9704 54.5062 61.3339 55.2793 61.4789H55.3618C55.6796 61.5347 56.0017 61.5624 56.3244 61.5616C56.5534 61.5753 56.783 61.5753 57.012 61.5616C57.3412 61.5322 57.6676 61.4769 57.9882 61.3962C58.9005 61.187 59.7896 60.8869 60.6423 60.5002H60.7797C61.8479 59.9969 62.8656 59.3922 63.8187 58.6944C64.8993 57.9359 65.9326 57.1119 66.9127 56.227C67.9166 55.3448 68.8929 54.4212 69.8142 53.4701C70.7355 52.519 71.5468 51.6229 72.2069 50.8234L72.3856 50.6029L71.7118 50.0515L71.5331 50.2583C70.8868 51.0027 70.158 51.8297 69.2367 52.7809C68.3153 53.732 67.4215 54.5866 66.4865 55.4551C65.5514 56.3235 64.4788 57.1505 63.4612 57.8949C62.5279 58.5781 61.5335 59.1734 60.4909 59.6731C59.7984 59.9968 59.0811 60.2642 58.3458 60.4726L57.7958 60.6104C57.0401 60.8032 56.2514 60.8268 55.4856 60.6794C54.9314 60.5775 54.4195 60.3137 54.0142 59.9212L53.7667 59.6869C53.2173 58.9997 52.8654 58.1751 52.7491 57.3022C52.5784 56.1799 52.644 55.0341 52.9416 53.9388C53.2789 52.612 53.7392 51.3198 54.3167 50.0791C54.9651 48.6854 55.7047 47.3361 56.5306 46.0402C57.3832 44.6618 58.2908 43.2833 59.1983 42.0565C60.1059 40.8297 61.041 39.5477 61.9485 38.4312C62.8561 37.3146 63.6674 36.336 64.3825 35.5227C65.8401 35.2056 67.3665 34.8472 68.9203 34.4475C70.4742 34.0477 72.2206 33.5653 73.9395 33.069C75.7266 32.4991 77.4764 31.8177 79.1787 31.0289C80.7982 30.27 82.373 29.4185 83.8953 28.4788C86.6264 26.7988 89.1629 24.8201 91.4584 22.579C92.3727 21.6813 93.2314 20.7284 94.0298 19.7256C94.6863 18.8927 95.288 18.0178 95.8312 17.1066C96.0698 16.691 96.2767 16.2578 96.45 15.8108C96.6488 15.3327 96.7918 14.8331 96.8763 14.3221C97.0039 13.7647 97.0086 13.186 96.89 12.6266ZM70.9143 10.7933C71.1893 10.4487 71.478 10.1178 71.7531 9.81455C72.1218 9.40357 72.512 9.01249 72.9219 8.6429C73.2988 8.29483 73.6984 7.97245 74.1183 7.67797C74.5729 7.32039 75.0721 7.02381 75.6033 6.79576C76.1593 6.53144 76.7625 6.38144 77.3773 6.35465H77.5698C77.8519 6.35211 78.1236 6.46106 78.3261 6.65791C78.3877 6.77966 78.4198 6.91426 78.4198 7.05077C78.4198 7.18729 78.3877 7.32189 78.3261 7.44364C78.1348 8.07769 77.7844 8.65196 77.3085 9.11157C76.5502 9.88908 75.6952 10.5655 74.7645 11.1241L73.9945 11.5652L73.3345 11.9098L72.4132 12.3371L71.7806 12.599C71.2581 12.7995 70.72 12.9563 70.1717 13.0677C69.8327 13.1422 69.4874 13.1837 69.1404 13.1918C69.7454 12.3509 70.3642 11.5376 70.9143 10.7933ZM35.9728 40.554C34.9457 42.1211 33.7362 43.5602 32.37 44.841C31.082 46.1371 29.7034 47.3394 28.2447 48.4388C27.0681 49.3033 25.8163 50.0598 24.5044 50.6994C23.4935 51.2047 22.421 51.5755 21.3142 51.8022C20.4493 51.9724 19.5637 52.0096 18.6877 51.9124C17.9496 51.8474 17.2377 51.6063 16.6113 51.2094C16.082 50.8623 15.6472 50.3886 15.3463 49.831C15.0636 49.2768 14.9218 48.6613 14.9337 48.039C14.9425 47.3067 15.1017 46.5841 15.4012 45.9162C15.753 45.1152 16.216 44.368 16.7763 43.6969C17.4709 42.8737 18.2707 42.146 19.1552 41.5327C20.2515 40.7843 21.422 40.1514 22.6481 39.6442C24.1597 39.0144 25.7243 38.5208 27.3234 38.1693C29.0766 37.7467 30.8608 37.4656 32.6588 37.3284C34.2814 37.2044 35.9728 37.1216 37.6917 37.0803C37.2879 38.3049 36.7286 39.4724 36.0278 40.554H35.9728ZM95.9962 14.1016C95.9093 14.5286 95.7756 14.9446 95.5974 15.3421C95.4291 15.7239 95.2409 16.0966 95.0336 16.4587C94.5158 17.3404 93.9416 18.1876 93.3147 18.995C92.5624 19.9647 91.7495 20.8855 90.8808 21.7519C89.8083 22.797 88.679 23.7818 87.498 24.7018C86.203 25.696 84.8533 26.6164 83.4552 27.4587C81.951 28.3763 80.3945 29.2048 78.7936 29.9399C77.1146 30.7127 75.3875 31.3757 73.6232 31.9249C72.0143 32.4625 70.433 32.9174 68.9479 33.3034C67.7928 33.5928 66.5964 33.8823 65.3725 34.158C66.8302 32.4901 68.3704 30.8084 69.9242 29.1404C71.4781 27.4725 73.5133 25.4324 75.4246 23.6266C77.336 21.8209 79.3162 20.1254 81.3514 18.485C83.3719 16.8664 85.474 15.3527 87.6493 13.9499C89.1372 13.0199 90.7418 12.2922 92.4209 11.7858C92.8687 11.6588 93.3308 11.5893 93.7961 11.579C94.3433 11.5569 94.8832 11.7115 95.3362 12.0201C95.6433 12.2343 95.8631 12.5525 95.955 12.9161C96.0759 13.2989 96.1088 13.7042 96.0512 14.1016H95.9962Z" fill="#11150F"/>
<path d="M47.7712 23.0477C47.3586 23.3785 46.9324 23.7094 46.5061 24.0126L46.1073 24.2883V42.4011C46.6849 41.7533 47.2487 41.0916 47.8125 40.4162L48.17 39.975L50.7414 36.9562L51.1677 36.46V19.7394L50.989 19.9462C49.9859 21.0501 48.9109 22.0862 47.7712 23.0477Z" fill="#11150F"/>
<path d="M51.1677 10.5314C51.142 9.41538 51.2481 8.30026 51.484 7.2093H51.1264C49.4319 7.39704 47.7655 7.78572 46.1623 8.36719H46.0385C46.1091 9.01257 46.1413 9.6616 46.1348 10.3108V21.4763L46.3961 21.2695C47.4399 20.4254 48.419 19.5038 49.325 18.5126C49.7788 17.9888 50.2189 17.4512 50.7002 16.8722L51.2502 16.0865L51.1677 10.5314Z" fill="#11150F"/>
<path d="M51.6627 58.9839C51.5239 58.6221 51.418 58.2483 51.3465 57.8673C51.0801 56.6639 51.0242 55.4232 51.1815 54.2007V42.3873C49.8339 43.9588 48.3946 45.5026 46.8636 47.0189L46.6161 47.2533L46.121 47.7357V53.856C46.1967 55.2696 45.9572 56.6823 45.4198 57.9914C45.1296 58.4856 44.7312 58.9074 44.2548 59.225C43.7785 59.5425 43.2365 59.7476 42.6696 59.8247C40.6296 60.2021 38.555 60.3593 36.4816 60.2934C36.3578 60.2934 36.2891 60.4864 36.2891 60.8586C36.2891 61.2307 36.2891 61.4237 36.4816 61.4237C38.668 61.4237 40.3869 61.4238 41.6382 61.3273L48.5138 61.2308L53.4504 61.2997C53.211 61.145 52.9856 60.9697 52.7766 60.7758C52.2702 60.2744 51.8887 59.6605 51.6627 58.9839Z" fill="#11150F"/>
<path d="M74.242 -9.53674e-06C73.9257 -9.53674e-06 73.7332 0.124057 73.6782 0.372178C73.5233 0.835572 73.2523 1.25132 72.8911 1.57958C72.5299 1.90785 72.0907 2.13762 71.6156 2.24687C69.9848 2.62728 68.3109 2.78952 66.6377 2.72934L60.2572 2.81204C56.1318 2.94989 52.2265 3.00502 48.5412 3.00502C41.3448 3.00502 35.0607 2.91313 29.6886 2.72934C26.3746 2.72934 24.7244 2.04011 24.7244 0.661662C24.7244 0.344618 24.5319 0.179196 24.1606 0.179196C23.7893 0.179196 23.5969 0.344618 23.5969 0.661662C23.5969 2.4996 23.441 5.30245 23.1293 9.07022C22.8176 12.838 22.538 15.5489 22.2905 17.2031C22.2905 17.3271 22.4692 17.3823 22.8543 17.3823C23.2393 17.3823 23.4043 17.3823 23.4043 17.2031C24.0369 12.3785 25.2469 9.02885 27.0621 7.14037C28.8772 5.2519 31.7512 4.38347 35.6978 4.38347C38.0297 4.33042 40.3627 4.42249 42.6833 4.65916C43.4166 4.73688 44.1175 5.00274 44.7185 5.43109L44.9385 5.34838C46.6477 4.74699 48.419 4.34009 50.2189 4.13534C51.0531 4.05263 51.8507 4.01129 52.6116 4.01129C53.1891 4.01129 53.7392 4.01129 54.2617 4.01129C54.7843 4.01129 55.0317 4.10779 55.403 4.17671C55.7743 4.24564 56.2006 4.34211 56.5719 4.4386C57.8232 4.35589 59.4321 4.31455 61.371 4.31455C63.7248 4.19378 66.0753 4.60848 68.2465 5.52759C69.4574 6.13366 70.4552 7.09538 71.1068 8.28449C71.2305 8.49126 71.3405 8.68426 71.4506 8.90481C71.5606 9.12536 71.6293 9.31833 71.7118 9.53888C71.7567 9.64151 71.7935 9.74749 71.8218 9.8559C71.9043 10.104 71.9868 10.3522 72.0556 10.6279C72.1244 10.9036 72.2344 11.3309 72.3031 11.7168L72.4268 12.4198C72.4268 12.7231 72.5093 13.0401 72.5369 13.3572C72.5805 13.5936 72.6035 13.8335 72.6056 14.074C72.7018 15.0389 72.7432 16.1003 72.7432 17.2444C72.7432 17.3685 72.9356 17.4236 73.3069 17.4236C73.6782 17.4236 73.8708 17.4236 73.8708 17.2444C73.8708 16.1417 73.8707 14.8873 73.9395 13.4812C73.9395 13.2193 73.9395 12.9574 73.9395 12.6817V11.6479V10.8346C73.9395 10.1316 73.9395 9.45616 74.0358 8.6153C74.0425 8.56499 74.0425 8.51401 74.0358 8.46369V7.7331C74.0358 7.34713 74.0358 6.97496 74.0358 6.60278C74.0358 6.2306 74.0358 6.03761 74.0358 5.76192C74.1733 3.48289 74.3108 1.70469 74.4483 0.427328C74.7095 0.0964997 74.5445 -9.53674e-06 74.242 -9.53674e-06Z" fill="#11150F"/>
<path d="M60.6422 61.4789C60.7385 61.4789 60.8072 61.341 60.8072 61.0791C60.4635 61.2307 60.1472 61.3548 59.8309 61.4651L60.6422 61.4789Z" fill="#11150F"/>
</g>
<defs>
<clipPath id="clip0_97_6">
<rect width="97" height="61.4789" fill="white"/>
</clipPath>
</defs>
</svg>
