<svg width="232" height="147" viewBox="0 0 232 147" fill="none" xmlns="http://www.w3.org/2000/svg">
<g clip-path="url(#clip0_44_950)">
<path d="M231.736 30.1909C231.39 28.9562 230.637 27.8757 229.599 27.1257C228.005 25.9383 226.091 25.2606 224.106 25.1811C221.716 25.0828 219.326 25.3835 217.035 26.0709C210.079 28.6452 203.454 32.0421 197.301 36.1896C190.883 40.4675 184.772 45.1924 179.015 50.3293C173.169 55.5107 167.613 61.0123 162.373 66.8091C157.177 72.5111 152.309 78.1472 147.902 83.5196C145.008 84.0469 142.113 84.4755 139.318 84.838C136.522 85.2006 134.68 85.3654 132.378 85.5632L132.872 84.8709C135.371 81.3772 137.838 77.521 140.239 73.3681C143.089 68.49 145.962 63.5241 148.856 58.4703C151.487 54.0537 154.019 49.7031 156.519 45.2865C159.019 40.8699 161.354 37.2773 163.722 33.7506C165.031 33.8373 166.346 33.7598 167.636 33.5199C169.106 33.2168 170.556 32.8204 171.977 32.3333L173.358 31.773C174.294 31.4155 175.206 30.9971 176.088 30.5205L176.779 30.1579C177.831 29.5976 178.818 29.0373 179.673 28.5099C182.256 27.0681 184.625 25.2708 186.711 23.1705C188.064 21.8107 189.078 20.151 189.671 18.3255C189.875 17.6986 189.931 17.0328 189.834 16.3807C189.737 15.7286 189.49 15.108 189.112 14.5681C188.713 14.0766 188.212 13.6778 187.644 13.399C187.077 13.1202 186.455 12.968 185.823 12.953C183.879 12.8685 181.944 13.2766 180.199 14.1396C179.283 14.5474 178.402 15.0326 177.568 15.5898C175.992 16.5524 174.506 17.6555 173.128 18.8858C172.339 19.5779 171.582 20.2701 170.859 21.0281C169.544 22.2965 168.304 23.639 167.142 25.0492L162.176 31.2456C161.266 31.061 160.39 30.7387 159.578 30.2898C158.629 29.7932 157.736 29.1966 156.914 28.5099C156.059 27.7848 155.236 27.0268 154.447 26.2358C153.625 25.4118 152.868 24.6208 152.112 23.7638C150.632 22.1488 148.987 20.4678 147.211 18.7869C145.302 17.0042 143.154 15.4957 140.831 14.3044C138.111 12.9183 135.193 11.9622 132.181 11.4698C131.359 11.305 130.504 11.2062 129.616 11.1073C126.521 10.7982 123.403 10.7982 120.308 11.1073C116.185 11.5664 112.125 12.4839 108.205 13.8429H108.04C104.409 15.1652 100.917 16.8433 97.6144 18.8528C94.5442 20.7478 91.6785 22.9569 89.0633 25.4447C86.6381 27.7591 84.4358 30.2973 82.4855 33.0255C80.9584 35.1011 79.6157 37.3068 78.4729 39.6174C77.4568 41.7369 76.6313 43.9429 76.0062 46.2093C75.435 48.3591 75.1584 50.5768 75.184 52.8013C75.1819 54.7184 75.6448 56.6073 76.5326 58.3055C77.4658 59.9329 78.8323 61.2681 80.4793 62.1618C82.5289 63.1859 84.7693 63.7696 87.0571 63.8757C90.002 64.0513 92.9542 63.694 95.7726 62.8209C98.857 61.8727 101.833 60.6023 104.653 59.0306C106.57 57.9537 108.416 56.7537 110.178 55.438C111.165 54.7458 112.151 53.9878 113.105 53.1968C115.756 50.9999 118.24 48.6092 120.538 46.0445C121.13 45.3523 121.722 44.6931 122.281 43.968C123.758 42.1504 125.11 40.2344 126.327 38.2331C127.824 35.8351 129.006 33.2541 129.846 30.5535L130.109 29.8284C130.157 29.5337 130.157 29.2331 130.109 28.9384V28.3122H127.938V29.5318C127.959 29.6738 127.959 29.8181 127.938 29.9602C127.161 32.51 126.055 34.9476 124.649 37.2113C123.926 38.3649 123.169 39.4855 122.314 40.5073C121.286 41.9025 120.189 43.2446 119.025 44.5284C116.816 47.0161 114.419 49.3301 111.855 51.4499L110.178 52.7683C108.091 54.3526 105.892 55.7845 103.6 57.053C100.927 58.5661 98.0914 59.7712 95.1477 60.6456C92.5028 61.4224 89.7394 61.7128 86.9913 61.5026C85.1009 61.4407 83.2384 61.0272 81.4989 60.2831C80.222 59.6806 79.1477 58.7186 78.4073 57.5145C77.6781 56.2311 77.314 54.7719 77.3548 53.2956C77.3631 51.3635 77.6512 49.4428 78.2099 47.5936C78.8216 45.6547 79.5914 43.7697 80.512 41.9575C81.5952 39.879 82.8494 37.8945 84.2614 36.0247C86.2065 33.4134 88.4103 31.006 90.8393 28.8395C93.4374 26.4269 96.2815 24.2948 99.3247 22.4784C102.607 20.5181 106.078 18.8948 109.685 17.6333C113.643 16.2522 117.749 15.345 121.92 14.9306L123.531 14.7658C126.636 14.434 129.767 14.434 132.872 14.7658C135.499 15.0594 138.07 15.7368 140.502 16.7764C142.465 17.5776 144.286 18.6905 145.896 20.0723C147.424 21.4389 148.873 22.8915 150.237 24.423C151.026 25.3129 151.849 26.1699 152.704 27.0268C153.559 27.8838 154.414 28.6418 155.335 29.3999C156.247 30.1485 157.227 30.8106 158.262 31.3775C159.028 31.793 159.832 32.1351 160.663 32.3992C157.867 36.1896 154.973 40.2766 152.112 44.6272C149.25 48.9779 145.929 53.9548 142.804 58.767L133.431 73.8624C132.378 75.4445 131.326 76.9607 130.306 78.4439C129.287 79.927 128.267 81.3443 127.28 82.7286L125.241 85.4313V85.629L124.88 86.1234C124.353 86.8485 123.794 87.5737 123.202 88.2988L122.479 89.2216L119.19 93.2427L118.795 93.7041C118.071 94.627 117.315 95.5169 116.592 96.4068L115.572 97.6923C113.829 99.8017 112.053 101.878 110.244 103.889L109.981 104.185C108.895 105.471 107.744 106.69 106.692 107.91C103.6 111.206 100.377 114.502 97.1539 117.567C93.9308 120.632 90.5761 123.599 87.0899 126.334C83.8359 128.817 80.4548 131.127 76.9601 133.256C73.546 135.298 69.9965 137.104 66.3368 138.661C62.7055 140.24 58.9555 141.53 55.1217 142.517C51.261 143.515 47.3216 144.176 43.3473 144.495C37.6673 145.054 31.9384 144.854 26.3108 143.902C22.0139 143.143 17.87 141.684 14.0432 139.584C11.5368 138.135 9.30915 136.249 7.46537 134.014C5.81641 131.94 4.55712 129.584 3.74888 127.059C2.95 124.502 2.58311 121.828 2.66349 119.149C2.77467 116.247 3.23848 113.369 4.04478 110.58C5.58173 105.098 8.05194 99.9246 11.3463 95.2862C15.1856 89.8286 19.7563 84.9266 24.9295 80.7181C28.7938 77.4892 33.0214 74.7238 37.5261 72.4782C41.6668 70.4103 46.0092 68.7756 50.4844 67.6001C54.5701 66.5319 58.762 65.9239 62.9823 65.7874H64.3635C67.6108 65.7739 70.8509 66.0941 74.033 66.7431C75.9626 67.2137 77.8536 67.8307 79.6898 68.5889C81.4937 69.3303 83.1871 70.3174 84.7219 71.5223C86.2343 72.6736 87.5361 74.0787 88.5699 75.6753C89.6241 77.3329 90.3084 79.1992 90.5761 81.1465C90.737 82.0604 90.8141 82.9872 90.8063 83.9152C90.7688 84.7454 90.67 85.5716 90.5105 86.3872C86.2678 86.3872 82.0579 86.7167 77.9138 87.0793C73.4889 87.4556 69.0939 88.1273 64.7582 89.0898C60.7833 89.9749 56.8973 91.2216 53.1484 92.8142C50.1474 94.1783 47.2931 95.846 44.6301 97.7912C42.3421 99.3529 40.2736 101.215 38.4798 103.328C36.9849 105.036 35.7341 106.944 34.7633 108.997C33.9479 110.87 33.5118 112.887 33.4806 114.93C33.4825 116.776 33.9473 118.591 34.8324 120.209C35.7174 121.828 36.9944 123.197 38.5457 124.192C40.299 125.327 42.2919 126.038 44.3669 126.268C46.6434 126.467 48.9367 126.334 51.175 125.873C54.009 125.295 56.7599 124.364 59.3643 123.104C62.6307 121.524 65.7463 119.649 68.672 117.501C72.3277 114.817 75.7796 111.864 78.9993 108.668C82.438 105.443 85.4749 101.813 88.0438 97.857C89.8622 95.0209 91.2583 91.9342 92.1878 88.6943C97.4501 88.6943 102.811 88.6943 108.106 88.6943H108.567V86.486C103.337 86.486 98.075 86.486 92.8127 86.486C92.8127 85.6291 92.8127 84.8051 92.9771 84.0141C93.04 82.9675 92.9849 81.9171 92.8127 80.8829C92.3186 78.0236 91.0692 75.3491 89.1948 73.1373C87.3585 70.9832 85.1252 69.2039 82.617 67.8967C78.827 65.7932 74.6965 64.3762 70.4152 63.7109C65.4825 62.9486 60.4675 62.882 55.5164 63.5132C49.6822 64.2815 43.9755 65.822 38.5457 68.0945C32.6074 70.5595 27.0659 73.8916 22.1011 77.9824C19.6691 80.039 17.3626 82.2403 15.1942 84.5743C12.9922 86.9123 10.9694 89.4133 9.14275 92.0561C7.30293 94.7019 5.69619 97.503 4.34087 100.428C2.95209 103.323 1.85049 106.348 1.05195 109.459C0.250601 112.513 -0.136506 115.662 -0.0990881 118.819C-0.0835662 121.846 0.415953 124.85 1.38076 127.718C2.32241 130.537 3.74709 133.169 5.59067 135.497C7.60271 137.959 10.043 140.036 12.7934 141.627C16.8188 143.868 21.2044 145.385 25.7517 146.11C31.6145 147.039 37.5716 147.217 43.479 146.637C51.2519 146.099 58.9008 144.399 66.1724 141.595C73.4174 138.796 80.3419 135.227 86.8269 130.949C91.0692 128.156 95.1536 125.13 99.0615 121.885C102.811 118.589 106.56 115.293 110.178 111.832L110.803 111.239C113.039 109.03 115.243 106.756 117.381 104.416C118.795 102.867 120.209 101.12 121.558 99.6699L122.216 98.8788C125.307 95.2203 128.168 91.5288 130.767 87.8703C133.332 87.6396 135.963 87.4088 138.66 87.1122C141.357 86.8155 143.429 86.5189 145.896 86.1234C142.607 90.573 139.318 95.0885 136.456 99.571C133.49 104.134 130.873 108.916 128.629 113.875C126.683 118.095 125.205 122.516 124.222 127.059C123.416 130.762 123.416 134.596 124.222 138.299C124.373 139.121 124.604 139.927 124.912 140.705C125.383 142.142 126.196 143.443 127.28 144.495C128.653 145.784 130.365 146.653 132.214 147H132.411C133.171 147.133 133.942 147.2 134.713 147.198C135.261 147.23 135.81 147.23 136.358 147.198C137.145 147.127 137.926 146.995 138.693 146.802C140.875 146.302 143.001 145.584 145.041 144.66H145.37C147.924 143.456 150.358 142.011 152.638 140.342C155.222 138.528 157.694 136.558 160.038 134.442C162.439 132.333 164.774 130.125 166.978 127.85C169.181 125.576 171.122 123.434 172.7 121.522L173.128 120.995L171.516 119.676L171.089 120.171C169.543 121.951 167.8 123.928 165.596 126.202C163.393 128.477 161.255 130.52 159.019 132.597C156.782 134.673 154.217 136.651 151.783 138.43C149.551 140.064 147.172 141.487 144.679 142.682C143.022 143.456 141.307 144.096 139.548 144.594L138.233 144.923C136.425 145.384 134.539 145.441 132.707 145.088C131.382 144.845 130.157 144.214 129.188 143.275L128.596 142.715C127.282 141.072 126.44 139.1 126.162 137.013C125.754 134.33 125.911 131.59 126.623 128.971C127.429 125.799 128.53 122.709 129.912 119.742C131.462 116.41 133.231 113.184 135.207 110.085C137.246 106.789 139.416 103.493 141.587 100.56C143.758 97.6264 145.994 94.5611 148.165 91.8914C150.336 89.2216 152.276 86.8815 153.986 84.9369C157.473 84.1788 161.123 83.3219 164.84 82.3661C168.556 81.4102 172.733 80.2567 176.844 79.0701C181.119 77.7074 185.304 76.0782 189.375 74.192C193.249 72.3773 197.015 70.3415 200.656 68.0945C207.188 64.0777 213.255 59.3464 218.745 53.9878C220.932 51.8412 222.986 49.5627 224.895 47.1651C226.466 45.1735 227.905 43.0816 229.204 40.9028C229.775 39.909 230.27 38.8733 230.684 37.8046C231.159 36.6613 231.502 35.4669 231.704 34.245C232.009 32.9121 232.02 31.5285 231.736 30.1909ZM169.609 25.8073C170.267 24.9833 170.957 24.1922 171.615 23.4671C172.497 22.4844 173.43 21.5493 174.411 20.6656C175.312 19.8334 176.268 19.0625 177.272 18.3584C178.359 17.5034 179.553 16.7943 180.824 16.249C182.154 15.617 183.596 15.2583 185.067 15.1943H185.527C186.202 15.1882 186.852 15.4487 187.336 15.9194C187.483 16.2105 187.56 16.5323 187.56 16.8587C187.56 17.1851 187.483 17.507 187.336 17.7981C186.878 19.3142 186.041 20.6873 184.902 21.7862C183.089 23.6453 181.044 25.2626 178.818 26.5983L176.976 27.653L175.397 28.477L173.194 29.4988L171.681 30.125C170.431 30.6044 169.144 30.9792 167.833 31.2456C167.022 31.4237 166.196 31.523 165.366 31.5423C166.813 29.5317 168.293 27.5871 169.609 25.8073ZM86.0376 96.9672C83.5808 100.714 80.688 104.155 77.4204 107.218C74.3399 110.317 71.0426 113.191 67.5537 115.82C64.7396 117.887 61.7457 119.696 58.6079 121.225C56.19 122.434 53.6248 123.32 50.9776 123.862C48.9092 124.269 46.7911 124.358 44.6959 124.126C42.9304 123.97 41.2277 123.394 39.7296 122.445C38.4636 121.615 37.4238 120.482 36.7039 119.149C36.0277 117.824 35.6886 116.352 35.717 114.864C35.7382 113.113 36.1189 111.385 36.8354 109.788C37.6768 107.873 38.784 106.087 40.1243 104.482C41.7855 102.514 43.6985 100.774 45.814 99.3073C48.436 97.5178 51.2356 96.0046 54.168 94.7918C57.7836 93.2859 61.5257 92.1057 65.3502 91.2651C69.5435 90.2547 73.8108 89.5825 78.1112 89.2546C81.9921 88.958 86.0376 88.7602 90.1487 88.6613C89.1827 91.5893 87.8452 94.3809 86.1691 96.9672H86.0376ZM229.599 33.7176C229.391 34.7386 229.071 35.7334 228.645 36.684C228.242 37.5969 227.792 38.488 227.296 39.3537C226.058 41.4619 224.685 43.4877 223.185 45.4182C221.386 47.7367 219.442 49.9384 217.364 52.0102C214.799 54.5089 212.098 56.8637 209.273 59.0636C206.176 61.4406 202.947 63.6413 199.604 65.6555C196.006 67.8496 192.283 69.8305 188.454 71.5882C184.439 73.4359 180.308 75.0212 176.088 76.3344C172.24 77.6198 168.458 78.7075 164.906 79.6304C162.143 80.3225 159.282 81.0147 156.354 81.6739C159.841 77.6857 163.524 73.6647 167.241 69.6766C170.957 65.6885 175.825 60.8104 180.397 56.4927C184.968 52.175 189.704 48.1209 194.572 44.1987C199.404 40.3284 204.432 36.7091 209.635 33.355C213.194 31.1313 217.031 29.3913 221.047 28.1804C222.118 27.8768 223.224 27.7106 224.336 27.6859C225.645 27.6332 226.936 28.0029 228.02 28.7407C228.755 29.2529 229.28 30.0136 229.5 30.883C229.789 31.7983 229.868 32.7675 229.73 33.7176H229.599ZM122.248 87.1782V86.1893C118.203 86.3541 114.158 86.453 110.145 86.453V88.6943C113.796 88.6943 117.479 88.6942 121.229 88.3647L122.248 87.1782Z" fill="white"/>
<path d="M231.736 30.1909C231.39 28.9562 230.637 27.8757 229.599 27.1257C228.005 25.9383 226.091 25.2606 224.106 25.1811C221.716 25.0828 219.326 25.3835 217.035 26.0709C210.079 28.6452 203.454 32.0421 197.301 36.1896C190.883 40.4675 184.772 45.1924 179.015 50.3293C173.169 55.5107 167.613 61.0123 162.373 66.8091C157.177 72.5111 152.309 78.1472 147.902 83.5196C145.008 84.0469 142.113 84.4755 139.318 84.838C136.522 85.2006 134.68 85.3654 132.378 85.5632L132.872 84.8709C135.371 81.3772 137.838 77.521 140.239 73.3681C143.089 68.49 145.962 63.5241 148.856 58.4703C151.487 54.0537 154.019 49.7031 156.519 45.2865C159.019 40.8699 161.354 37.2773 163.722 33.7506C165.031 33.8373 166.346 33.7598 167.636 33.5199C169.106 33.2168 170.556 32.8204 171.977 32.3333L173.358 31.773C174.294 31.4155 175.206 30.9971 176.088 30.5205L176.779 30.1579C177.831 29.5976 178.818 29.0373 179.673 28.5099C182.256 27.0681 184.625 25.2708 186.711 23.1705C188.064 21.8107 189.078 20.151 189.671 18.3255C189.875 17.6986 189.931 17.0328 189.834 16.3807C189.737 15.7286 189.49 15.108 189.112 14.5681C188.713 14.0766 188.212 13.6778 187.644 13.399C187.077 13.1202 186.455 12.968 185.823 12.953C183.879 12.8685 181.944 13.2766 180.199 14.1396C179.283 14.5474 178.402 15.0326 177.568 15.5898C175.992 16.5524 174.506 17.6555 173.128 18.8858C172.339 19.5779 171.582 20.2701 170.859 21.0281C169.544 22.2965 168.304 23.639 167.142 25.0492L162.176 31.2456C161.266 31.061 160.39 30.7387 159.578 30.2898C158.629 29.7932 157.736 29.1966 156.914 28.5099C156.059 27.7848 155.236 27.0268 154.447 26.2358C153.625 25.4118 152.868 24.6208 152.112 23.7638C150.632 22.1488 148.987 20.4678 147.211 18.7869C145.302 17.0042 143.154 15.4957 140.831 14.3044C138.111 12.9183 135.193 11.9622 132.181 11.4698C131.359 11.305 130.504 11.2062 129.616 11.1073C126.521 10.7982 123.403 10.7982 120.308 11.1073C116.185 11.5664 112.125 12.4839 108.205 13.8429H108.04C104.409 15.1652 100.917 16.8433 97.6144 18.8528C94.5442 20.7478 91.6785 22.9569 89.0633 25.4447C86.6381 27.7591 84.4358 30.2973 82.4855 33.0255C80.9584 35.1011 79.6157 37.3068 78.4729 39.6174C77.4568 41.7369 76.6313 43.9429 76.0062 46.2093C75.435 48.3591 75.1584 50.5768 75.184 52.8013C75.1819 54.7184 75.6448 56.6073 76.5326 58.3055C77.4658 59.9329 78.8323 61.2681 80.4793 62.1618C82.5289 63.1859 84.7693 63.7696 87.0571 63.8757C90.002 64.0513 92.9542 63.694 95.7726 62.8209C98.857 61.8727 101.833 60.6023 104.653 59.0306C106.57 57.9537 108.416 56.7537 110.178 55.438C111.165 54.7458 112.151 53.9878 113.105 53.1968C115.756 50.9999 118.24 48.6092 120.538 46.0445C121.13 45.3523 121.722 44.6931 122.281 43.968C123.758 42.1504 125.11 40.2344 126.327 38.2331C127.824 35.8351 129.006 33.2541 129.846 30.5535L130.109 29.8284C130.157 29.5337 130.157 29.2331 130.109 28.9384V28.3122H127.938V29.5318C127.959 29.6738 127.959 29.8181 127.938 29.9602C127.161 32.51 126.055 34.9476 124.649 37.2113C123.926 38.3649 123.169 39.4855 122.314 40.5073C121.286 41.9025 120.189 43.2446 119.025 44.5284C116.816 47.0161 114.419 49.3301 111.855 51.4499L110.178 52.7683C108.091 54.3526 105.892 55.7845 103.6 57.053C100.927 58.5661 98.0914 59.7712 95.1477 60.6456C92.5028 61.4224 89.7394 61.7128 86.9913 61.5026C85.1009 61.4407 83.2384 61.0272 81.4989 60.2831C80.222 59.6806 79.1477 58.7186 78.4073 57.5145C77.6781 56.2311 77.314 54.7719 77.3548 53.2956C77.3631 51.3635 77.6512 49.4428 78.2099 47.5936C78.8216 45.6547 79.5914 43.7697 80.512 41.9575C81.5952 39.879 82.8494 37.8945 84.2614 36.0247C86.2065 33.4134 88.4103 31.006 90.8393 28.8395C93.4374 26.4269 96.2815 24.2948 99.3247 22.4784C102.607 20.5181 106.078 18.8948 109.685 17.6333C113.643 16.2522 117.749 15.345 121.92 14.9306L123.531 14.7658C126.636 14.434 129.767 14.434 132.872 14.7658C135.499 15.0594 138.07 15.7368 140.502 16.7764C142.465 17.5776 144.286 18.6905 145.896 20.0723C147.424 21.4389 148.873 22.8915 150.237 24.423C151.026 25.3129 151.849 26.1699 152.704 27.0268C153.559 27.8838 154.414 28.6418 155.335 29.3999C156.247 30.1485 157.227 30.8106 158.262 31.3775C159.028 31.793 159.832 32.1351 160.663 32.3992C157.867 36.1896 154.973 40.2766 152.112 44.6272C149.25 48.9779 145.929 53.9548 142.804 58.767L133.431 73.8624C132.378 75.4445 131.326 76.9607 130.306 78.4439C129.287 79.927 128.267 81.3443 127.28 82.7286L125.241 85.4313V85.629L124.88 86.1234C124.353 86.8485 123.794 87.5737 123.202 88.2988L122.479 89.2216L119.19 93.2427L118.795 93.7041C118.071 94.627 117.315 95.5169 116.592 96.4068L115.572 97.6923C113.829 99.8017 112.053 101.878 110.244 103.889L109.981 104.185C108.895 105.471 107.744 106.69 106.692 107.91C103.6 111.206 100.377 114.502 97.1539 117.567C93.9308 120.632 90.5761 123.599 87.0899 126.334C83.8359 128.817 80.4548 131.127 76.9601 133.256C73.546 135.298 69.9965 137.104 66.3368 138.661C62.7055 140.24 58.9555 141.53 55.1217 142.517C51.261 143.515 47.3216 144.176 43.3473 144.495C37.6673 145.054 31.9384 144.854 26.3108 143.902C22.0139 143.143 17.87 141.684 14.0432 139.584C11.5368 138.135 9.30915 136.249 7.46537 134.014C5.81641 131.94 4.55712 129.584 3.74888 127.059C2.95 124.502 2.58311 121.828 2.66349 119.149C2.77467 116.247 3.23848 113.369 4.04478 110.58C5.58173 105.098 8.05194 99.9246 11.3463 95.2862C15.1856 89.8286 19.7563 84.9266 24.9295 80.7181C28.7938 77.4892 33.0214 74.7238 37.5261 72.4782C41.6668 70.4103 46.0092 68.7756 50.4844 67.6001C54.5701 66.5319 58.762 65.9239 62.9823 65.7874H64.3635C67.6108 65.7739 70.8509 66.0941 74.033 66.7431C75.9626 67.2137 77.8536 67.8307 79.6898 68.5889C81.4937 69.3303 83.1871 70.3174 84.7219 71.5223C86.2343 72.6736 87.5361 74.0787 88.5699 75.6753C89.6241 77.3329 90.3084 79.1992 90.5761 81.1465C90.737 82.0604 90.8141 82.9872 90.8063 83.9152C90.7688 84.7454 90.67 85.5716 90.5105 86.3872C86.2678 86.3872 82.0579 86.7167 77.9138 87.0793C73.4889 87.4556 69.0939 88.1273 64.7582 89.0898C60.7833 89.9749 56.8973 91.2216 53.1484 92.8142C50.1474 94.1783 47.2931 95.846 44.6301 97.7912C42.3421 99.3529 40.2736 101.215 38.4798 103.328C36.9849 105.036 35.7341 106.944 34.7633 108.997C33.9479 110.87 33.5118 112.887 33.4806 114.93C33.4825 116.776 33.9473 118.591 34.8324 120.209C35.7174 121.828 36.9944 123.197 38.5457 124.192C40.299 125.327 42.2919 126.038 44.3669 126.268C46.6434 126.467 48.9367 126.334 51.175 125.873C54.009 125.295 56.7599 124.364 59.3643 123.104C62.6307 121.524 65.7463 119.649 68.672 117.501C72.3277 114.817 75.7796 111.864 78.9993 108.668C82.438 105.443 85.4749 101.813 88.0438 97.857C89.8622 95.0209 91.2583 91.9342 92.1878 88.6943C97.4501 88.6943 102.811 88.6943 108.106 88.6943H108.567V86.486C103.337 86.486 98.075 86.486 92.8127 86.486C92.8127 85.6291 92.8127 84.8051 92.9771 84.0141C93.04 82.9675 92.9849 81.9171 92.8127 80.8829C92.3186 78.0236 91.0692 75.3491 89.1948 73.1373C87.3585 70.9832 85.1252 69.2039 82.617 67.8967C78.827 65.7932 74.6965 64.3762 70.4152 63.7109C65.4825 62.9486 60.4675 62.882 55.5164 63.5132C49.6822 64.2815 43.9755 65.822 38.5457 68.0945C32.6074 70.5595 27.0659 73.8916 22.1011 77.9824C19.6691 80.039 17.3626 82.2403 15.1942 84.5743C12.9922 86.9123 10.9694 89.4133 9.14275 92.0561C7.30293 94.7019 5.69619 97.503 4.34087 100.428C2.95209 103.323 1.85049 106.348 1.05195 109.459C0.250601 112.513 -0.136506 115.662 -0.0990881 118.819C-0.0835662 121.846 0.415953 124.85 1.38076 127.718C2.32241 130.537 3.74709 133.169 5.59067 135.497C7.60271 137.959 10.043 140.036 12.7934 141.627C16.8188 143.868 21.2044 145.385 25.7517 146.11C31.6145 147.039 37.5716 147.217 43.479 146.637C51.2519 146.099 58.9008 144.399 66.1724 141.595C73.4174 138.796 80.3419 135.227 86.8269 130.949C91.0692 128.156 95.1536 125.13 99.0615 121.885C102.811 118.589 106.56 115.293 110.178 111.832L110.803 111.239C113.039 109.03 115.243 106.756 117.381 104.416C118.795 102.867 120.209 101.12 121.558 99.6699L122.216 98.8788C125.307 95.2203 128.168 91.5288 130.767 87.8703C133.332 87.6396 135.963 87.4088 138.66 87.1122C141.357 86.8155 143.429 86.5189 145.896 86.1234C142.607 90.573 139.318 95.0885 136.456 99.571C133.49 104.134 130.873 108.916 128.629 113.875C126.683 118.095 125.205 122.516 124.222 127.059C123.416 130.762 123.416 134.596 124.222 138.299C124.373 139.121 124.604 139.927 124.912 140.705C125.383 142.142 126.196 143.443 127.28 144.495C128.653 145.784 130.365 146.653 132.214 147H132.411C133.171 147.133 133.942 147.2 134.713 147.198C135.261 147.23 135.81 147.23 136.358 147.198C137.145 147.127 137.926 146.995 138.693 146.802C140.875 146.302 143.001 145.584 145.041 144.66H145.37C147.924 143.456 150.358 142.011 152.638 140.342C155.222 138.528 157.694 136.558 160.038 134.442C162.439 132.333 164.774 130.125 166.978 127.85C169.181 125.576 171.122 123.434 172.7 121.522L173.128 120.995L171.516 119.676L171.089 120.171C169.543 121.951 167.8 123.928 165.596 126.202C163.393 128.477 161.255 130.52 159.019 132.597C156.782 134.673 154.217 136.651 151.783 138.43C149.551 140.064 147.172 141.487 144.679 142.682C143.022 143.456 141.307 144.096 139.548 144.594L138.233 144.923C136.425 145.384 134.539 145.441 132.707 145.088C131.382 144.845 130.157 144.214 129.188 143.275L128.596 142.715C127.282 141.072 126.44 139.1 126.162 137.013C125.754 134.33 125.911 131.59 126.623 128.971C127.429 125.799 128.53 122.709 129.912 119.742C131.462 116.41 133.231 113.184 135.207 110.085C137.246 106.789 139.416 103.493 141.587 100.56C143.758 97.6264 145.994 94.5611 148.165 91.8914C150.336 89.2216 152.276 86.8815 153.986 84.9369C157.473 84.1788 161.123 83.3219 164.84 82.3661C168.556 81.4102 172.733 80.2567 176.844 79.0701C181.119 77.7074 185.304 76.0782 189.375 74.192C193.249 72.3773 197.015 70.3415 200.656 68.0945C207.188 64.0777 213.255 59.3464 218.745 53.9878C220.932 51.8412 222.986 49.5627 224.895 47.1651C226.466 45.1735 227.905 43.0816 229.204 40.9028C229.775 39.909 230.27 38.8733 230.684 37.8046C231.159 36.6613 231.502 35.4669 231.704 34.245C232.009 32.9121 232.02 31.5285 231.736 30.1909ZM169.609 25.8073C170.267 24.9833 170.957 24.1922 171.615 23.4671C172.497 22.4844 173.43 21.5493 174.411 20.6656C175.312 19.8334 176.268 19.0625 177.272 18.3584C178.359 17.5034 179.553 16.7943 180.824 16.249C182.154 15.617 183.596 15.2583 185.067 15.1943H185.527C186.202 15.1882 186.852 15.4487 187.336 15.9194C187.483 16.2105 187.56 16.5323 187.56 16.8587C187.56 17.1851 187.483 17.507 187.336 17.7981C186.878 19.3142 186.041 20.6873 184.902 21.7862C183.089 23.6453 181.044 25.2626 178.818 26.5983L176.976 27.653L175.397 28.477L173.194 29.4988L171.681 30.125C170.431 30.6044 169.144 30.9792 167.833 31.2456C167.022 31.4237 166.196 31.523 165.366 31.5423C166.813 29.5317 168.293 27.5871 169.609 25.8073ZM86.0376 96.9672C83.5808 100.714 80.688 104.155 77.4204 107.218C74.3399 110.317 71.0426 113.191 67.5537 115.82C64.7396 117.887 61.7457 119.696 58.6079 121.225C56.19 122.434 53.6248 123.32 50.9776 123.862C48.9092 124.269 46.7911 124.358 44.6959 124.126C42.9304 123.97 41.2277 123.394 39.7296 122.445C38.4636 121.615 37.4238 120.482 36.7039 119.149C36.0277 117.824 35.6886 116.352 35.717 114.864C35.7382 113.113 36.1189 111.385 36.8354 109.788C37.6768 107.873 38.784 106.087 40.1243 104.482C41.7855 102.514 43.6985 100.774 45.814 99.3073C48.436 97.5178 51.2356 96.0046 54.168 94.7918C57.7836 93.2859 61.5257 92.1057 65.3502 91.2651C69.5435 90.2547 73.8108 89.5825 78.1112 89.2546C81.9921 88.958 86.0376 88.7602 90.1487 88.6613C89.1827 91.5893 87.8452 94.3809 86.1691 96.9672H86.0376ZM229.599 33.7176C229.391 34.7386 229.071 35.7334 228.645 36.684C228.242 37.5969 227.792 38.488 227.296 39.3537C226.058 41.4619 224.685 43.4877 223.185 45.4182C221.386 47.7367 219.442 49.9384 217.364 52.0102C214.799 54.5089 212.098 56.8637 209.273 59.0636C206.176 61.4406 202.947 63.6413 199.604 65.6555C196.006 67.8496 192.283 69.8305 188.454 71.5882C184.439 73.4359 180.308 75.0212 176.088 76.3344C172.24 77.6198 168.458 78.7075 164.906 79.6304C162.143 80.3225 159.282 81.0147 156.354 81.6739C159.841 77.6857 163.524 73.6647 167.241 69.6766C170.957 65.6885 175.825 60.8104 180.397 56.4927C184.968 52.175 189.704 48.1209 194.572 44.1987C199.404 40.3284 204.432 36.7091 209.635 33.355C213.194 31.1313 217.031 29.3913 221.047 28.1804C222.118 27.8768 223.224 27.7106 224.336 27.6859C225.645 27.6332 226.936 28.0029 228.02 28.7407C228.755 29.2529 229.28 30.0136 229.5 30.883C229.789 31.7983 229.868 32.7675 229.73 33.7176H229.599Z" fill="white"/>
<path d="M114.257 55.1085C113.27 55.8996 112.251 56.6906 111.231 57.4157L110.277 58.0749V101.384C111.659 99.8348 113.007 98.2527 114.356 96.6377L115.211 95.583L121.361 88.3648L122.381 87.1783V47.1982L121.953 47.6926C119.554 50.3322 116.983 52.8096 114.257 55.1085Z" fill="white"/>
<path d="M122.381 25.1811C122.32 22.5127 122.573 19.8464 123.137 17.2378H122.282C118.229 17.6867 114.244 18.6161 110.409 20.0064H110.113C110.282 21.5495 110.359 23.1014 110.344 24.6537V51.351L110.968 50.8566C113.465 48.8383 115.807 46.6348 117.974 44.2646C119.059 43.0122 120.112 41.7268 121.263 40.3425L122.578 38.4638L122.381 25.1811Z" fill="white"/>
<path d="M123.565 141.035C123.233 140.169 122.98 139.276 122.809 138.365C122.171 135.487 122.038 132.521 122.414 129.598V101.351C119.191 105.108 115.748 108.8 112.087 112.426L111.495 112.986L110.311 114.139V128.774C110.492 132.153 109.919 135.531 108.633 138.661C107.939 139.843 106.986 140.852 105.847 141.611C104.708 142.37 103.411 142.861 102.056 143.045C97.1763 143.947 92.2146 144.323 87.2554 144.166C86.9594 144.166 86.7949 144.627 86.7949 145.517C86.7949 146.407 86.795 146.868 87.2554 146.868C92.4848 146.868 96.5959 146.868 99.5888 146.638L116.033 146.407L127.841 146.572C127.268 146.202 126.729 145.783 126.229 145.319C125.018 144.12 124.105 142.652 123.565 141.035Z" fill="white"/>
<path d="M177.568 0C176.811 0 176.351 0.296651 176.219 0.889924C175.849 1.99793 175.201 2.99202 174.337 3.77691C173.473 4.56181 172.422 5.1112 171.286 5.37244C167.385 6.28203 163.382 6.66995 159.38 6.52604L144.119 6.72379C134.253 7.05339 124.912 7.18523 116.098 7.18523C98.8858 7.18523 83.8556 6.96551 71.0069 6.52604C63.0806 6.52604 59.1337 4.87806 59.1337 1.5821C59.1337 0.824027 58.6734 0.428491 57.7854 0.428491C56.8974 0.428491 56.437 0.824027 56.437 1.5821C56.437 5.97672 56.0642 12.6785 55.3187 21.6875C54.5732 30.6965 53.9045 37.1785 53.3125 41.1337C53.3125 41.4303 53.74 41.5622 54.6609 41.5622C55.5818 41.5622 55.9765 41.5621 55.9765 41.1337C57.4894 29.5978 60.3836 21.5886 64.7249 17.0731C69.0663 12.5576 75.9402 10.4812 85.3794 10.4812C90.9569 10.3544 96.5367 10.5745 102.087 11.1404C103.841 11.3262 105.517 11.9619 106.955 12.9861L107.481 12.7884C111.569 11.3504 115.805 10.3775 120.11 9.88789C122.106 9.69013 124.013 9.59127 125.833 9.59127C127.214 9.59127 128.53 9.59127 129.78 9.59127C131.03 9.59127 131.621 9.82202 132.509 9.98682C133.397 10.1516 134.417 10.3823 135.305 10.613C138.298 10.4152 142.146 10.3164 146.783 10.3164C152.413 10.0276 158.035 11.0192 163.228 13.2168C166.124 14.666 168.51 16.9655 170.069 19.8088C170.365 20.3032 170.628 20.7646 170.891 21.292C171.154 21.8194 171.319 22.2808 171.516 22.8081C171.623 23.0535 171.711 23.3069 171.779 23.5661C171.976 24.1594 172.174 24.7528 172.338 25.412C172.503 26.0711 172.766 27.0928 172.93 28.0157L173.226 29.6967C173.226 30.4218 173.424 31.1798 173.489 31.9379C173.594 32.5033 173.649 33.0769 173.654 33.6519C173.884 35.959 173.983 38.4969 173.983 41.2325C173.983 41.5292 174.443 41.661 175.331 41.661C176.219 41.661 176.68 41.661 176.68 41.2325C176.68 38.5958 176.68 35.5964 176.844 32.2345C176.844 31.6083 176.844 30.9821 176.844 30.3229V27.8509V25.9063C176.844 24.2254 176.844 22.6103 177.074 20.5998C177.091 20.4795 177.091 20.3576 177.074 20.2373V18.4904C177.074 17.5675 177.074 16.6776 177.074 15.7877C177.074 14.8978 177.074 14.4363 177.074 13.7772C177.403 8.32783 177.732 4.07605 178.061 1.02179C178.686 0.23076 178.291 0 177.568 0Z" fill="white"/>
<path d="M145.042 147C145.272 147 145.437 146.67 145.437 146.044C144.615 146.407 143.858 146.703 143.102 146.967L145.042 147Z" fill="white"/>
</g>
<defs>
<clipPath id="clip0_44_950">
<rect width="232" height="147" fill="white"/>
</clipPath>
</defs>
</svg>
